<?xml version="1.0" encoding="UTF-8" standalone="no"?>
<!DOCTYPE svg PUBLIC "-//W3C//DTD SVG 1.1//EN"
 "http://www.w3.org/Graphics/SVG/1.1/DTD/svg11.dtd">
<!-- Generated by graphviz version 2.47.0 (20210316.0004)
 -->
<!-- Pages: 1 -->
<svg width="2390pt" height="1027pt"
 viewBox="0.00 0.00 2390.32 1027.00" xmlns="http://www.w3.org/2000/svg" xmlns:xlink="http://www.w3.org/1999/xlink">
<g id="graph0" class="graph" transform="scale(1 1) rotate(0) translate(4 1023)">
<polygon fill="white" stroke="transparent" points="-4,4 -4,-1023 2386.32,-1023 2386.32,4 -4,4"/>
<g id="clust1" class="cluster">
<title>cluster&#45;nid&#45;02</title>
<polygon fill="none" stroke="#cccccc" points="1349.07,-835 1349.07,-905 1716.26,-905 1716.26,-835 1349.07,-835"/>
</g>
<g id="clust2" class="cluster">
<title>cluster&#45;nid&#45;03</title>
<polygon fill="none" stroke="#cccccc" points="1349.07,-750 1349.07,-820 1716.26,-820 1716.26,-750 1349.07,-750"/>
</g>
<g id="clust5" class="cluster">
<title>cluster&#45;nid&#45;06</title>
<polygon fill="none" stroke="#cccccc" points="1637.19,-573 1637.19,-643 1725.32,-643 1725.32,-573 1637.19,-573"/>
</g>
<g id="clust6" class="cluster">
<title>cluster&#45;nid&#45;07</title>
<polygon fill="none" stroke="#cccccc" points="1064.43,-19 1064.43,-89 1437.19,-89 1437.19,-19 1064.43,-19"/>
</g>
<g id="clust7" class="cluster">
<title>cluster&#45;nid&#45;08</title>
<polygon fill="none" stroke="#cccccc" points="1358.13,-658 1358.13,-728 1725.32,-728 1725.32,-658 1358.13,-658"/>
</g>
<g id="clust8" class="cluster">
<title>cluster&#45;nid&#45;09</title>
<polygon fill="none" stroke="#cccccc" points="1358.13,-332 1358.13,-402 1725.32,-402 1725.32,-332 1358.13,-332"/>
</g>
<g id="clust9" class="cluster">
<title>cluster&#45;nid&#45;0a</title>
<polygon fill="none" stroke="#cccccc" points="1064.43,-119 1064.43,-189 1437.19,-189 1437.19,-119 1064.43,-119"/>
</g>
<g id="clust18" class="cluster">
<title>cluster&#45;nid&#45;12&#45;out</title>
<polygon fill="none" stroke="#cccccc" points="284,-200 284,-284 464,-284 464,-200 284,-200"/>
</g>
<g id="clust20" class="cluster">
<title>cluster&#45;nid&#45;13&#45;out</title>
<polygon fill="none" stroke="#cccccc" points="285.5,-108 285.5,-192 462.5,-192 462.5,-108 285.5,-108"/>
</g>
<g id="clust21" class="cluster">
<title>cluster&#45;nid&#45;14&#45;in</title>
<polygon fill="none" stroke="#cccccc" points="1925.32,-927 1925.32,-1011 2104.32,-1011 2104.32,-927 1925.32,-927"/>
</g>
<g id="clust25" class="cluster">
<title>cluster&#45;nid&#45;17&#45;in</title>
<polygon fill="none" stroke="#cccccc" points="1926.32,-651 1926.32,-735 2103.32,-735 2103.32,-651 1926.32,-651"/>
</g>
<g id="clust28" class="cluster">
<title>cluster&#45;nid&#45;18&#45;out</title>
<polygon fill="none" stroke="#cccccc" points="285.5,-12 285.5,-96 462.5,-96 462.5,-12 285.5,-12"/>
</g>
<g id="clust30" class="cluster">
<title>cluster&#45;nid&#45;19&#45;out</title>
<polygon fill="none" stroke="#cccccc" points="297,-660 297,-744 451,-744 451,-660 297,-660"/>
</g>
<g id="clust32" class="cluster">
<title>cluster&#45;nid&#45;1a&#45;out</title>
<polygon fill="none" stroke="#cccccc" points="285.5,-542 285.5,-626 462.5,-626 462.5,-542 285.5,-542"/>
</g>
<g id="clust33" class="cluster">
<title>cluster&#45;nid&#45;1b&#45;in</title>
<polygon fill="none" stroke="#cccccc" points="1926.32,-743 1926.32,-827 2374.32,-827 2374.32,-743 1926.32,-743"/>
</g>
<g id="clust34" class="cluster">
<title>cluster&#45;nid&#45;1b&#45;out</title>
<polygon fill="none" stroke="#cccccc" points="8,-397 8,-481 462.5,-481 462.5,-397 8,-397"/>
</g>
<g id="clust37" class="cluster">
<title>cluster&#45;nid&#45;1d&#45;out</title>
<polygon fill="none" stroke="#cccccc" points="278,-765 278,-849 470,-849 470,-765 278,-765"/>
</g>
<g id="clust38" class="cluster">
<title>cluster&#45;nid&#45;1e&#45;in</title>
<polygon fill="none" stroke="#cccccc" points="1926.32,-559 1926.32,-643 2103.32,-643 2103.32,-559 1926.32,-559"/>
</g>
<g id="clust42" class="cluster">
<title>cluster&#45;nid&#45;21&#45;in</title>
<polygon fill="none" stroke="#cccccc" points="1928.82,-835 1928.82,-919 2100.82,-919 2100.82,-835 1928.82,-835"/>
</g>
<g id="clust44" class="cluster">
<title>cluster&#45;nid&#45;22</title>
<polygon fill="none" stroke="#cccccc" points="670,-208 670,-526 1149.07,-526 1149.07,-208 670,-208"/>
</g>
<g id="clust45" class="cluster">
<title>cluster&#45;nid&#45;23</title>
<polygon fill="none" stroke="#cccccc" points="670,-534 670,-852 1149.07,-852 1149.07,-534 670,-534"/>
</g>
<g id="clust46" class="cluster">
<title>cluster&#45;nid&#45;24</title>
<polygon fill="none" stroke="#cccccc" points="699.02,-8 699.02,-100 820.77,-100 820.77,-8 699.02,-8"/>
</g>
<g id="clust47" class="cluster">
<title>cluster&#45;nid&#45;25</title>
<polygon fill="none" stroke="#cccccc" points="699.02,-108 699.02,-200 820.77,-200 820.77,-108 699.02,-108"/>
</g>
<!-- nid&#45;02 -->
<g id="node1" class="node">
<title>nid&#45;02</title>
<ellipse fill="none" stroke="blue" cx="1393.13" cy="-870" rx="36.12" ry="26.74"/>
<text text-anchor="middle" x="1393.13" y="-873.8" font-family="Times,serif" font-size="14.00">0x02</text>
<text text-anchor="middle" x="1393.13" y="-858.8" font-family="Times,serif" font-size="14.00">Stereo</text>
</g>
<!-- nid&#45;02&#45;ampout -->
<g id="node2" class="node">
<title>nid&#45;02&#45;ampout</title>
<polygon fill="none" stroke="#0000ff" points="1708.26,-870 1667.76,-888 1667.76,-852 1708.26,-870"/>
</g>
<!-- nid&#45;02&#45;&gt;nid&#45;02&#45;ampout -->
<g id="edge1" class="edge">
<title>nid&#45;02&#45;&gt;nid&#45;02&#45;ampout</title>
<path fill="none" stroke="#0000ff" d="M1429.22,-870C1490.73,-870 1615.93,-870 1662.38,-870"/>
<polygon fill="#0000ff" stroke="#0000ff" points="1662.65,-871.75 1667.65,-870 1662.65,-868.25 1662.65,-871.75"/>
</g>
<!-- nid&#45;14&#45;in -->
<g id="node20" class="node">
<title>nid&#45;14&#45;in</title>
<polygon fill="none" stroke="green" points="2096.32,-1003 1933.32,-1003 1933.32,-935 2096.32,-935 2096.32,-1003"/>
<text text-anchor="middle" x="2014.82" y="-987.8" font-family="Times,serif" font-size="14.00">0x14</text>
<text text-anchor="middle" x="2014.82" y="-972.8" font-family="Times,serif" font-size="14.00">[Fixed] Speaker at Int N/A</text>
<text text-anchor="middle" x="2014.82" y="-957.8" font-family="Times,serif" font-size="14.00">Stereo</text>
<text text-anchor="middle" x="2014.82" y="-942.8" font-family="Times,serif" font-size="14.00">OUT EAPD Detect</text>
</g>
<!-- nid&#45;02&#45;ampout&#45;&gt;nid&#45;14&#45;in -->
<g id="edge11" class="edge">
<title>nid&#45;02&#45;ampout&#45;&gt;nid&#45;14&#45;in</title>
<path fill="none" stroke="#333333" d="M1698.25,-874.77C1738.25,-886.72 1845.07,-918.61 1923.39,-942"/>
<polygon fill="#333333" stroke="#333333" points="1922.69,-945.44 1933.27,-944.95 1924.69,-938.74 1922.69,-945.44"/>
</g>
<!-- nid&#45;17&#45;in -->
<g id="node21" class="node">
<title>nid&#45;17&#45;in</title>
<polygon fill="none" stroke="green" points="2095.32,-727 1934.32,-727 1934.32,-659 2095.32,-659 2095.32,-727"/>
<text text-anchor="middle" x="2014.82" y="-711.8" font-family="Times,serif" font-size="14.00">0x17</text>
<text text-anchor="middle" x="2014.82" y="-696.8" font-family="Times,serif" font-size="14.00">[N/A] Speaker at Ext Rear</text>
<text text-anchor="middle" x="2014.82" y="-681.8" font-family="Times,serif" font-size="14.00">Stereo</text>
<text text-anchor="middle" x="2014.82" y="-666.8" font-family="Times,serif" font-size="14.00">OUT HP Detect</text>
</g>
<!-- nid&#45;02&#45;ampout&#45;&gt;nid&#45;17&#45;in -->
<g id="edge12" class="edge">
<title>nid&#45;02&#45;ampout&#45;&gt;nid&#45;17&#45;in</title>
<path fill="none" stroke="#333333" d="M1694.11,-863.53C1729.28,-844.35 1836.13,-786.21 1925.32,-739 1929.79,-736.63 1934.4,-734.2 1939.06,-731.76"/>
<polygon fill="#333333" stroke="#333333" points="1940.8,-734.8 1948.03,-727.05 1937.55,-728.6 1940.8,-734.8"/>
</g>
<!-- nid&#45;1b&#45;in -->
<g id="node25" class="node">
<title>nid&#45;1b&#45;in</title>
<polygon fill="none" stroke="green" points="2095.32,-819 1934.32,-819 1934.32,-751 2095.32,-751 2095.32,-819"/>
<text text-anchor="middle" x="2014.82" y="-803.8" font-family="Times,serif" font-size="14.00">0x1b</text>
<text text-anchor="middle" x="2014.82" y="-788.8" font-family="Times,serif" font-size="14.00">[N/A] Speaker at Ext Rear</text>
<text text-anchor="middle" x="2014.82" y="-773.8" font-family="Times,serif" font-size="14.00">Stereo</text>
<text text-anchor="middle" x="2014.82" y="-758.8" font-family="Times,serif" font-size="14.00">IN OUT EAPD Detect</text>
</g>
<!-- nid&#45;02&#45;ampout&#45;&gt;nid&#45;1b&#45;in -->
<g id="edge18" class="edge">
<title>nid&#45;02&#45;ampout&#45;&gt;nid&#45;1b&#45;in</title>
<path fill="none" stroke="#333333" d="M1699.15,-865.67C1740.03,-855.19 1846.62,-827.86 1924.44,-807.91"/>
<polygon fill="#333333" stroke="#333333" points="1925.45,-811.27 1934.27,-805.39 1923.71,-804.49 1925.45,-811.27"/>
</g>
<!-- nid&#45;21&#45;in -->
<g id="node31" class="node">
<title>nid&#45;21&#45;in</title>
<polygon fill="none" stroke="green" points="2092.82,-911 1936.82,-911 1936.82,-843 2092.82,-843 2092.82,-911"/>
<text text-anchor="middle" x="2014.82" y="-895.8" font-family="Times,serif" font-size="14.00">0x21</text>
<text text-anchor="middle" x="2014.82" y="-880.8" font-family="Times,serif" font-size="14.00">[Jack] HP Out at Ext Left</text>
<text text-anchor="middle" x="2014.82" y="-865.8" font-family="Times,serif" font-size="14.00">Stereo</text>
<text text-anchor="middle" x="2014.82" y="-850.8" font-family="Times,serif" font-size="14.00">OUT HP EAPD Detect</text>
</g>
<!-- nid&#45;02&#45;ampout&#45;&gt;nid&#45;21&#45;in -->
<g id="edge21" class="edge">
<title>nid&#45;02&#45;ampout&#45;&gt;nid&#45;21&#45;in</title>
<path fill="none" stroke="gray" stroke-dasharray="5,2" d="M1707.18,-870.53C1753.13,-871.5 1853.23,-873.61 1926.61,-875.16"/>
<polygon fill="gray" stroke="gray" points="1926.71,-878.66 1936.78,-875.37 1926.85,-871.66 1926.71,-878.66"/>
</g>
<!-- nid&#45;03 -->
<g id="node3" class="node">
<title>nid&#45;03</title>
<ellipse fill="none" stroke="blue" cx="1393.13" cy="-785" rx="36.12" ry="26.74"/>
<text text-anchor="middle" x="1393.13" y="-788.8" font-family="Times,serif" font-size="14.00">0x03</text>
<text text-anchor="middle" x="1393.13" y="-773.8" font-family="Times,serif" font-size="14.00">Stereo</text>
</g>
<!-- nid&#45;03&#45;ampout -->
<g id="node4" class="node">
<title>nid&#45;03&#45;ampout</title>
<polygon fill="none" stroke="#0000ff" points="1708.26,-785 1667.76,-803 1667.76,-767 1708.26,-785"/>
</g>
<!-- nid&#45;03&#45;&gt;nid&#45;03&#45;ampout -->
<g id="edge2" class="edge">
<title>nid&#45;03&#45;&gt;nid&#45;03&#45;ampout</title>
<path fill="none" stroke="#0000ff" d="M1429.22,-785C1490.73,-785 1615.93,-785 1662.38,-785"/>
<polygon fill="#0000ff" stroke="#0000ff" points="1662.65,-786.75 1667.65,-785 1662.65,-783.25 1662.65,-786.75"/>
</g>
<!-- nid&#45;03&#45;ampout&#45;&gt;nid&#45;17&#45;in -->
<g id="edge13" class="edge">
<title>nid&#45;03&#45;ampout&#45;&gt;nid&#45;17&#45;in</title>
<path fill="none" stroke="gray" stroke-dasharray="5,2" d="M1698.7,-780.44C1739.17,-769.21 1846.01,-739.56 1924.1,-717.89"/>
<polygon fill="gray" stroke="gray" points="1925.25,-721.21 1933.95,-715.16 1923.38,-714.46 1925.25,-721.21"/>
</g>
<!-- nid&#45;03&#45;ampout&#45;&gt;nid&#45;1b&#45;in -->
<g id="edge19" class="edge">
<title>nid&#45;03&#45;ampout&#45;&gt;nid&#45;1b&#45;in</title>
<path fill="none" stroke="gray" stroke-dasharray="5,2" d="M1708.27,-785C1754.2,-785 1851.65,-785 1924.22,-785"/>
<polygon fill="gray" stroke="gray" points="1924.28,-788.5 1934.28,-785 1924.28,-781.5 1924.28,-788.5"/>
</g>
<!-- nid&#45;03&#45;ampout&#45;&gt;nid&#45;21&#45;in -->
<g id="edge22" class="edge">
<title>nid&#45;03&#45;ampout&#45;&gt;nid&#45;21&#45;in</title>
<path fill="none" stroke="#333333" d="M1698.7,-789.56C1739.61,-800.91 1848.33,-831.08 1926.63,-852.81"/>
<polygon fill="#333333" stroke="#333333" points="1925.93,-856.24 1936.5,-855.55 1927.8,-849.5 1925.93,-856.24"/>
</g>
<!-- nid&#45;06 -->
<g id="node5" class="node">
<title>nid&#45;06</title>
<ellipse fill="none" stroke="blue" cx="1681.26" cy="-608" rx="36.12" ry="26.74"/>
<text text-anchor="middle" x="1681.26" y="-611.8" font-family="Times,serif" font-size="14.00">0x06</text>
<text text-anchor="middle" x="1681.26" y="-596.8" font-family="Times,serif" font-size="14.00">Stereo</text>
</g>
<!-- nid&#45;06&#45;&gt;nid&#45;17&#45;in -->
<g id="edge14" class="edge">
<title>nid&#45;06&#45;&gt;nid&#45;17&#45;in</title>
<path fill="none" stroke="gray" stroke-dasharray="5,2" d="M1715.57,-616.54C1763.93,-628.94 1855.34,-652.37 1924.27,-670.04"/>
<polygon fill="gray" stroke="gray" points="1923.72,-673.51 1934.27,-672.61 1925.45,-666.73 1923.72,-673.51"/>
</g>
<!-- nid&#45;1e&#45;in -->
<g id="node30" class="node">
<title>nid&#45;1e&#45;in</title>
<polygon fill="none" stroke="green" points="2095.32,-635 1934.32,-635 1934.32,-567 2095.32,-567 2095.32,-635"/>
<text text-anchor="middle" x="2014.82" y="-619.8" font-family="Times,serif" font-size="14.00">0x1e</text>
<text text-anchor="middle" x="2014.82" y="-604.8" font-family="Times,serif" font-size="14.00">[N/A] Speaker at Ext Rear</text>
<text text-anchor="middle" x="2014.82" y="-589.8" font-family="Times,serif" font-size="14.00">Stereo</text>
<text text-anchor="middle" x="2014.82" y="-574.8" font-family="Times,serif" font-size="14.00">OUT</text>
</g>
<!-- nid&#45;06&#45;&gt;nid&#45;1e&#45;in -->
<g id="edge20" class="edge">
<title>nid&#45;06&#45;&gt;nid&#45;1e&#45;in</title>
<path fill="none" stroke="#333333" d="M1717.42,-607.26C1766.17,-606.23 1855.95,-604.33 1923.97,-602.9"/>
<polygon fill="#333333" stroke="#333333" points="1924.34,-606.39 1934.26,-602.68 1924.19,-599.39 1924.34,-606.39"/>
</g>
<!-- nid&#45;07 -->
<g id="node6" class="node">
<title>nid&#45;07</title>
<ellipse fill="none" stroke="red" cx="1393.13" cy="-54" rx="36.12" ry="26.74"/>
<text text-anchor="middle" x="1393.13" y="-57.8" font-family="Times,serif" font-size="14.00">0x07</text>
<text text-anchor="middle" x="1393.13" y="-42.8" font-family="Times,serif" font-size="14.00">Stereo</text>
</g>
<!-- nid&#45;07&#45;ampin -->
<g id="node7" class="node">
<title>nid&#45;07&#45;ampin</title>
<polygon fill="none" stroke="#c8c8c8" points="1126.43,-54 1085.93,-72 1085.93,-36 1126.43,-54"/>
</g>
<!-- nid&#45;07&#45;ampin&#45;&gt;nid&#45;07 -->
<g id="edge3" class="edge">
<title>nid&#45;07&#45;ampin&#45;&gt;nid&#45;07</title>
<path fill="none" stroke="#c8c8c8" d="M1126.57,-54C1177.61,-54 1290.83,-54 1351.64,-54"/>
<polygon fill="#c8c8c8" stroke="#c8c8c8" points="1352,-55.75 1357,-54 1352,-52.25 1352,-55.75"/>
</g>
<!-- nid&#45;24 -->
<g id="node8" class="node">
<title>nid&#45;24</title>
<polygon fill="none" stroke="black" points="812.64,-92 728.73,-92 707.14,-16 791.06,-16 812.64,-92"/>
<text text-anchor="middle" x="759.89" y="-57.8" font-family="Times,serif" font-size="14.00">0x24</text>
<text text-anchor="middle" x="759.89" y="-42.8" font-family="Times,serif" font-size="14.00">Stereo</text>
</g>
<!-- nid&#45;24&#45;&gt;nid&#45;07&#45;ampin -->
<g id="edge4" class="edge">
<title>nid&#45;24&#45;&gt;nid&#45;07&#45;ampin</title>
<path fill="none" stroke="#333333" d="M801.94,-54C873.61,-54 1019.26,-54 1075.53,-54"/>
<polygon fill="#333333" stroke="#333333" points="1075.83,-57.5 1085.83,-54 1075.83,-50.5 1075.83,-57.5"/>
</g>
<!-- nid&#45;08 -->
<g id="node9" class="node">
<title>nid&#45;08</title>
<ellipse fill="none" stroke="red" cx="1681.26" cy="-693" rx="36.12" ry="26.74"/>
<text text-anchor="middle" x="1681.26" y="-696.8" font-family="Times,serif" font-size="14.00">0x08</text>
<text text-anchor="middle" x="1681.26" y="-681.8" font-family="Times,serif" font-size="14.00">Stereo</text>
</g>
<!-- nid&#45;08&#45;&gt;nid&#45;17&#45;in -->
<g id="edge15" class="edge">
<title>nid&#45;08&#45;&gt;nid&#45;17&#45;in</title>
<path fill="none" stroke="gray" stroke-dasharray="5,2" d="M1717.42,-693C1766.17,-693 1855.95,-693 1923.97,-693"/>
<polygon fill="gray" stroke="gray" points="1924.26,-696.5 1934.26,-693 1924.26,-689.5 1924.26,-696.5"/>
</g>
<!-- nid&#45;08&#45;ampin -->
<g id="node10" class="node">
<title>nid&#45;08&#45;ampin</title>
<polygon fill="none" stroke="#c8c8c8" points="1420.13,-693 1379.63,-711 1379.63,-675 1420.13,-693"/>
</g>
<!-- nid&#45;08&#45;ampin&#45;&gt;nid&#45;08 -->
<g id="edge5" class="edge">
<title>nid&#45;08&#45;ampin&#45;&gt;nid&#45;08</title>
<path fill="none" stroke="#c8c8c8" d="M1420.28,-693C1470.36,-693 1580.13,-693 1639.76,-693"/>
<polygon fill="#c8c8c8" stroke="#c8c8c8" points="1640.02,-694.75 1645.02,-693 1640.02,-691.25 1640.02,-694.75"/>
</g>
<!-- nid&#45;23 -->
<g id="node11" class="node">
<title>nid&#45;23</title>
<polygon fill="none" stroke="black" points="1141.21,-693 1120.32,-724.05 1078.54,-724.05 1057.64,-693 1078.54,-661.95 1120.32,-661.95 1141.21,-693"/>
<text text-anchor="middle" x="1099.43" y="-696.8" font-family="Times,serif" font-size="14.00">0x23</text>
<text text-anchor="middle" x="1099.43" y="-681.8" font-family="Times,serif" font-size="14.00">Stereo</text>
</g>
<!-- nid&#45;23&#45;&gt;nid&#45;08&#45;ampin -->
<g id="edge6" class="edge">
<title>nid&#45;23&#45;&gt;nid&#45;08&#45;ampin</title>
<path fill="none" stroke="#333333" d="M1141.29,-693C1203.55,-693 1320.11,-693 1369.3,-693"/>
<polygon fill="#333333" stroke="#333333" points="1369.51,-696.5 1379.51,-693 1369.51,-689.5 1369.51,-696.5"/>
</g>
<!-- nid&#45;09 -->
<g id="node12" class="node">
<title>nid&#45;09</title>
<ellipse fill="none" stroke="red" cx="1681.26" cy="-367" rx="36.12" ry="26.74"/>
<text text-anchor="middle" x="1681.26" y="-370.8" font-family="Times,serif" font-size="14.00">0x09</text>
<text text-anchor="middle" x="1681.26" y="-355.8" font-family="Times,serif" font-size="14.00">Stereo</text>
</g>
<!-- nid&#45;09&#45;ampin -->
<g id="node13" class="node">
<title>nid&#45;09&#45;ampin</title>
<polygon fill="none" stroke="#c8c8c8" points="1420.13,-367 1379.63,-385 1379.63,-349 1420.13,-367"/>
</g>
<!-- nid&#45;09&#45;ampin&#45;&gt;nid&#45;09 -->
<g id="edge7" class="edge">
<title>nid&#45;09&#45;ampin&#45;&gt;nid&#45;09</title>
<path fill="none" stroke="#c8c8c8" d="M1420.28,-367C1470.36,-367 1580.13,-367 1639.76,-367"/>
<polygon fill="#c8c8c8" stroke="#c8c8c8" points="1640.02,-368.75 1645.02,-367 1640.02,-365.25 1640.02,-368.75"/>
</g>
<!-- nid&#45;22 -->
<g id="node14" class="node">
<title>nid&#45;22</title>
<polygon fill="none" stroke="black" points="1141.21,-367 1120.32,-398.05 1078.54,-398.05 1057.64,-367 1078.54,-335.95 1120.32,-335.95 1141.21,-367"/>
<text text-anchor="middle" x="1099.43" y="-370.8" font-family="Times,serif" font-size="14.00">0x22</text>
<text text-anchor="middle" x="1099.43" y="-355.8" font-family="Times,serif" font-size="14.00">Stereo</text>
</g>
<!-- nid&#45;22&#45;&gt;nid&#45;09&#45;ampin -->
<g id="edge8" class="edge">
<title>nid&#45;22&#45;&gt;nid&#45;09&#45;ampin</title>
<path fill="none" stroke="#333333" d="M1141.29,-367C1203.55,-367 1320.11,-367 1369.3,-367"/>
<polygon fill="#333333" stroke="#333333" points="1369.51,-370.5 1379.51,-367 1369.51,-363.5 1369.51,-370.5"/>
</g>
<!-- nid&#45;0a -->
<g id="node15" class="node">
<title>nid&#45;0a</title>
<ellipse fill="none" stroke="red" cx="1393.13" cy="-154" rx="36.12" ry="26.74"/>
<text text-anchor="middle" x="1393.13" y="-157.8" font-family="Times,serif" font-size="14.00">0x0a</text>
<text text-anchor="middle" x="1393.13" y="-142.8" font-family="Times,serif" font-size="14.00">Stereo</text>
</g>
<!-- nid&#45;0a&#45;ampin -->
<g id="node16" class="node">
<title>nid&#45;0a&#45;ampin</title>
<polygon fill="none" stroke="#c8c8c8" points="1126.43,-154 1085.93,-172 1085.93,-136 1126.43,-154"/>
</g>
<!-- nid&#45;0a&#45;ampin&#45;&gt;nid&#45;0a -->
<g id="edge9" class="edge">
<title>nid&#45;0a&#45;ampin&#45;&gt;nid&#45;0a</title>
<path fill="none" stroke="#c8c8c8" d="M1126.57,-154C1177.61,-154 1290.83,-154 1351.64,-154"/>
<polygon fill="#c8c8c8" stroke="#c8c8c8" points="1352,-155.75 1357,-154 1352,-152.25 1352,-155.75"/>
</g>
<!-- nid&#45;25 -->
<g id="node17" class="node">
<title>nid&#45;25</title>
<polygon fill="none" stroke="black" points="812.64,-192 728.73,-192 707.14,-116 791.06,-116 812.64,-192"/>
<text text-anchor="middle" x="759.89" y="-157.8" font-family="Times,serif" font-size="14.00">0x25</text>
<text text-anchor="middle" x="759.89" y="-142.8" font-family="Times,serif" font-size="14.00">Stereo</text>
</g>
<!-- nid&#45;25&#45;&gt;nid&#45;0a&#45;ampin -->
<g id="edge10" class="edge">
<title>nid&#45;25&#45;&gt;nid&#45;0a&#45;ampin</title>
<path fill="none" stroke="#333333" d="M801.94,-154C873.61,-154 1019.26,-154 1075.53,-154"/>
<polygon fill="#333333" stroke="#333333" points="1075.83,-157.5 1085.83,-154 1075.83,-150.5 1075.83,-157.5"/>
</g>
<!-- nid&#45;12&#45;out -->
<g id="node18" class="node">
<title>nid&#45;12&#45;out</title>
<polygon fill="none" stroke="green" points="456,-276 292,-276 292,-208 456,-208 456,-276"/>
<text text-anchor="middle" x="374" y="-260.8" font-family="Times,serif" font-size="14.00">0x12</text>
<text text-anchor="middle" x="374" y="-245.8" font-family="Times,serif" font-size="14.00">[N/A] Line Out at Ext N/A</text>
<text text-anchor="middle" x="374" y="-230.8" font-family="Times,serif" font-size="14.00">Stereo</text>
<text text-anchor="middle" x="374" y="-215.8" font-family="Times,serif" font-size="14.00">IN</text>
</g>
<!-- nid&#45;12&#45;out&#45;&gt;nid&#45;24 -->
<g id="edge43" class="edge">
<title>nid&#45;12&#45;out&#45;&gt;nid&#45;24</title>
<path fill="none" stroke="#333333" d="M445.58,-207.88C453.81,-203.88 462.09,-199.86 470,-196 556.36,-153.87 657.02,-104.28 713.83,-76.25"/>
<polygon fill="#333333" stroke="#333333" points="715.48,-79.34 722.9,-71.78 712.38,-73.07 715.48,-79.34"/>
</g>
<!-- nid&#45;12&#45;out&#45;&gt;nid&#45;25 -->
<g id="edge46" class="edge">
<title>nid&#45;12&#45;out&#45;&gt;nid&#45;25</title>
<path fill="none" stroke="#333333" d="M456.41,-223.34C533.5,-205.67 646.68,-179.72 710.49,-165.1"/>
<polygon fill="#333333" stroke="#333333" points="711.33,-168.49 720.29,-162.85 709.76,-161.67 711.33,-168.49"/>
</g>
<!-- nid&#45;23&#45;ampin&#45;18 -->
<g id="node41" class="node">
<title>nid&#45;23&#45;ampin&#45;18</title>
<polygon fill="none" stroke="#c8c8c8" points="841.68,-565 719,-588 719,-542 841.68,-565"/>
<text text-anchor="middle" x="759.89" y="-561.3" font-family="Times,serif" font-size="14.00">4 (0x12)</text>
</g>
<!-- nid&#45;12&#45;out&#45;&gt;nid&#45;23&#45;ampin&#45;18 -->
<g id="edge42" class="edge">
<title>nid&#45;12&#45;out&#45;&gt;nid&#45;23&#45;ampin&#45;18</title>
<path fill="none" stroke="#333333" d="M402.09,-276.22C450.32,-335.2 556.72,-456.71 670,-530 681.99,-537.76 695.97,-544.26 709.25,-549.46"/>
<polygon fill="#333333" stroke="#333333" points="708.16,-552.79 718.75,-553.03 710.62,-546.24 708.16,-552.79"/>
</g>
<!-- nid&#45;13&#45;out -->
<g id="node19" class="node">
<title>nid&#45;13&#45;out</title>
<polygon fill="none" stroke="green" points="454.5,-184 293.5,-184 293.5,-116 454.5,-116 454.5,-184"/>
<text text-anchor="middle" x="374" y="-168.8" font-family="Times,serif" font-size="14.00">0x13</text>
<text text-anchor="middle" x="374" y="-153.8" font-family="Times,serif" font-size="14.00">[N/A] Speaker at Ext Rear</text>
<text text-anchor="middle" x="374" y="-138.8" font-family="Times,serif" font-size="14.00">Stereo</text>
<text text-anchor="middle" x="374" y="-123.8" font-family="Times,serif" font-size="14.00">IN</text>
</g>
<!-- nid&#45;13&#45;out&#45;&gt;nid&#45;24 -->
<g id="edge44" class="edge">
<title>nid&#45;13&#45;out&#45;&gt;nid&#45;24</title>
<path fill="none" stroke="gray" stroke-dasharray="5,2" d="M454.54,-130.11C531.78,-110.79 646.51,-82.1 710.78,-66.03"/>
<polygon fill="gray" stroke="gray" points="711.8,-69.39 720.65,-63.56 710.1,-62.59 711.8,-69.39"/>
</g>
<!-- nid&#45;13&#45;out&#45;&gt;nid&#45;25 -->
<g id="edge47" class="edge">
<title>nid&#45;13&#45;out&#45;&gt;nid&#45;25</title>
<path fill="none" stroke="gray" stroke-dasharray="5,2" d="M454.54,-150.83C530.37,-151.62 642.34,-152.79 707.22,-153.46"/>
<polygon fill="gray" stroke="gray" points="707.56,-156.97 717.6,-153.57 707.64,-149.97 707.56,-156.97"/>
</g>
<!-- nid&#45;22&#45;ampin&#45;19 -->
<g id="node36" class="node">
<title>nid&#45;22&#45;ampin&#45;19</title>
<polygon fill="none" stroke="#c8c8c8" points="841.68,-239 719,-262 719,-216 841.68,-239"/>
<text text-anchor="middle" x="759.89" y="-235.3" font-family="Times,serif" font-size="14.00">4 (0x13)</text>
</g>
<!-- nid&#45;13&#45;out&#45;&gt;nid&#45;22&#45;ampin&#45;19 -->
<g id="edge32" class="edge">
<title>nid&#45;13&#45;out&#45;&gt;nid&#45;22&#45;ampin&#45;19</title>
<path fill="none" stroke="#333333" d="M454.54,-168.44C531.05,-186.18 644.34,-212.44 708.94,-227.42"/>
<polygon fill="#333333" stroke="#333333" points="708.35,-230.88 718.88,-229.72 709.93,-224.06 708.35,-230.88"/>
</g>
<!-- nid&#45;18&#45;out -->
<g id="node22" class="node">
<title>nid&#45;18&#45;out</title>
<polygon fill="none" stroke="green" points="454.5,-88 293.5,-88 293.5,-20 454.5,-20 454.5,-88"/>
<text text-anchor="middle" x="374" y="-72.8" font-family="Times,serif" font-size="14.00">0x18</text>
<text text-anchor="middle" x="374" y="-57.8" font-family="Times,serif" font-size="14.00">[N/A] Speaker at Ext Rear</text>
<text text-anchor="middle" x="374" y="-42.8" font-family="Times,serif" font-size="14.00">Stereo</text>
<text text-anchor="middle" x="374" y="-27.8" font-family="Times,serif" font-size="14.00">IN Detect</text>
</g>
<!-- nid&#45;18&#45;out&#45;&gt;nid&#45;24 -->
<g id="edge45" class="edge">
<title>nid&#45;18&#45;out&#45;&gt;nid&#45;24</title>
<path fill="none" stroke="gray" stroke-dasharray="5,2" d="M454.54,-54C530.48,-54 642.65,-54 707.48,-54"/>
<polygon fill="gray" stroke="gray" points="707.86,-57.5 717.86,-54 707.86,-50.5 707.86,-57.5"/>
</g>
<!-- nid&#45;19&#45;out -->
<g id="node23" class="node">
<title>nid&#45;19&#45;out</title>
<polygon fill="none" stroke="green" points="443,-736 305,-736 305,-668 443,-668 443,-736"/>
<text text-anchor="middle" x="374" y="-720.8" font-family="Times,serif" font-size="14.00">0x19</text>
<text text-anchor="middle" x="374" y="-705.8" font-family="Times,serif" font-size="14.00">[Jack] Mic at Ext Left</text>
<text text-anchor="middle" x="374" y="-690.8" font-family="Times,serif" font-size="14.00">Stereo</text>
<text text-anchor="middle" x="374" y="-675.8" font-family="Times,serif" font-size="14.00">IN Detect</text>
</g>
<!-- nid&#45;22&#45;ampin&#45;25 -->
<g id="node32" class="node">
<title>nid&#45;22&#45;ampin&#45;25</title>
<polygon fill="none" stroke="#c8c8c8" points="841.68,-431 719,-454 719,-408 841.68,-431"/>
<text text-anchor="middle" x="759.89" y="-427.3" font-family="Times,serif" font-size="14.00">0 (0x19)</text>
</g>
<!-- nid&#45;19&#45;out&#45;&gt;nid&#45;22&#45;ampin&#45;25 -->
<g id="edge28" class="edge">
<title>nid&#45;19&#45;out&#45;&gt;nid&#45;22&#45;ampin&#45;25</title>
<path fill="none" stroke="#333333" d="M421.24,-667.64C436.85,-655.86 454.29,-642.5 470,-630 560.62,-557.9 569.54,-520.6 670,-463 682.02,-456.11 695.78,-450.28 708.84,-445.57"/>
<polygon fill="#333333" stroke="#333333" points="710.33,-448.75 718.64,-442.18 708.04,-442.14 710.33,-448.75"/>
</g>
<!-- nid&#45;23&#45;ampin&#45;25 -->
<g id="node37" class="node">
<title>nid&#45;23&#45;ampin&#45;25</title>
<polygon fill="none" stroke="#0000ff" points="841.68,-757 719,-780 719,-734 841.68,-757"/>
<text text-anchor="middle" x="759.89" y="-753.3" font-family="Times,serif" font-size="14.00">0 (0x19)</text>
</g>
<!-- nid&#45;19&#45;out&#45;&gt;nid&#45;23&#45;ampin&#45;25 -->
<g id="edge38" class="edge">
<title>nid&#45;19&#45;out&#45;&gt;nid&#45;23&#45;ampin&#45;25</title>
<path fill="none" stroke="#333333" d="M443.19,-711.77C519.43,-722.69 641.07,-740.12 708.95,-749.84"/>
<polygon fill="#333333" stroke="#333333" points="708.57,-753.33 718.97,-751.28 709.56,-746.4 708.57,-753.33"/>
</g>
<!-- nid&#45;1a&#45;out -->
<g id="node24" class="node">
<title>nid&#45;1a&#45;out</title>
<polygon fill="none" stroke="green" points="454.5,-618 293.5,-618 293.5,-550 454.5,-550 454.5,-618"/>
<text text-anchor="middle" x="374" y="-602.8" font-family="Times,serif" font-size="14.00">0x1a</text>
<text text-anchor="middle" x="374" y="-587.8" font-family="Times,serif" font-size="14.00">[N/A] Speaker at Ext Rear</text>
<text text-anchor="middle" x="374" y="-572.8" font-family="Times,serif" font-size="14.00">Stereo</text>
<text text-anchor="middle" x="374" y="-557.8" font-family="Times,serif" font-size="14.00">IN Detect</text>
</g>
<!-- nid&#45;22&#45;ampin&#45;26 -->
<g id="node33" class="node">
<title>nid&#45;22&#45;ampin&#45;26</title>
<polygon fill="none" stroke="#c8c8c8" points="840.58,-367 719.55,-390 719.55,-344 840.58,-367"/>
<text text-anchor="middle" x="759.89" y="-363.3" font-family="Times,serif" font-size="14.00">1 (0x1a)</text>
</g>
<!-- nid&#45;1a&#45;out&#45;&gt;nid&#45;22&#45;ampin&#45;26 -->
<g id="edge29" class="edge">
<title>nid&#45;1a&#45;out&#45;&gt;nid&#45;22&#45;ampin&#45;26</title>
<path fill="none" stroke="#333333" d="M422.22,-549.91C479,-510.01 578.13,-443.7 670,-399 682.46,-392.94 696.37,-387.39 709.43,-382.68"/>
<polygon fill="#333333" stroke="#333333" points="710.93,-385.87 719.2,-379.25 708.61,-379.26 710.93,-385.87"/>
</g>
<!-- nid&#45;23&#45;ampin&#45;26 -->
<g id="node38" class="node">
<title>nid&#45;23&#45;ampin&#45;26</title>
<polygon fill="none" stroke="#c8c8c8" points="840.58,-693 719.55,-716 719.55,-670 840.58,-693"/>
<text text-anchor="middle" x="759.89" y="-689.3" font-family="Times,serif" font-size="14.00">1 (0x1a)</text>
</g>
<!-- nid&#45;1a&#45;out&#45;&gt;nid&#45;23&#45;ampin&#45;26 -->
<g id="edge39" class="edge">
<title>nid&#45;1a&#45;out&#45;&gt;nid&#45;23&#45;ampin&#45;26</title>
<path fill="none" stroke="#333333" d="M454.54,-606.58C531.26,-628.37 644.96,-660.65 709.47,-678.97"/>
<polygon fill="#333333" stroke="#333333" points="708.81,-682.42 719.39,-681.78 710.73,-675.69 708.81,-682.42"/>
</g>
<!-- nid&#45;1b&#45;ampout -->
<g id="node26" class="node">
<title>nid&#45;1b&#45;ampout</title>
<polygon fill="none" stroke="#c8c8c8" points="2366.32,-785 2325.82,-803 2325.82,-767 2366.32,-785"/>
</g>
<!-- nid&#45;1b&#45;in&#45;&gt;nid&#45;1b&#45;ampout -->
<g id="edge16" class="edge">
<title>nid&#45;1b&#45;in&#45;&gt;nid&#45;1b&#45;ampout</title>
<path fill="none" stroke="#c8c8c8" d="M2095.54,-785C2171.02,-785 2278.86,-785 2320.74,-785"/>
<polygon fill="#c8c8c8" stroke="#c8c8c8" points="2320.75,-786.75 2325.75,-785 2320.75,-783.25 2320.75,-786.75"/>
</g>
<!-- nid&#45;1b&#45;out -->
<g id="node27" class="node">
<title>nid&#45;1b&#45;out</title>
<polygon fill="none" stroke="green" points="454.5,-473 293.5,-473 293.5,-405 454.5,-405 454.5,-473"/>
<text text-anchor="middle" x="374" y="-457.8" font-family="Times,serif" font-size="14.00">0x1b</text>
<text text-anchor="middle" x="374" y="-442.8" font-family="Times,serif" font-size="14.00">[N/A] Speaker at Ext Rear</text>
<text text-anchor="middle" x="374" y="-427.8" font-family="Times,serif" font-size="14.00">Stereo</text>
<text text-anchor="middle" x="374" y="-412.8" font-family="Times,serif" font-size="14.00">IN OUT EAPD Detect</text>
</g>
<!-- nid&#45;22&#45;ampin&#45;27 -->
<g id="node34" class="node">
<title>nid&#45;22&#45;ampin&#45;27</title>
<polygon fill="none" stroke="#c8c8c8" points="841.68,-303 719,-326 719,-280 841.68,-303"/>
<text text-anchor="middle" x="759.89" y="-299.3" font-family="Times,serif" font-size="14.00">2 (0x1b)</text>
</g>
<!-- nid&#45;1b&#45;out&#45;&gt;nid&#45;22&#45;ampin&#45;27 -->
<g id="edge30" class="edge">
<title>nid&#45;1b&#45;out&#45;&gt;nid&#45;22&#45;ampin&#45;27</title>
<path fill="none" stroke="#333333" d="M454.54,-410.82C531.21,-383.66 644.81,-343.42 709.34,-320.55"/>
<polygon fill="#333333" stroke="#333333" points="710.62,-323.81 718.88,-317.17 708.29,-317.21 710.62,-323.81"/>
</g>
<!-- nid&#45;23&#45;ampin&#45;27 -->
<g id="node39" class="node">
<title>nid&#45;23&#45;ampin&#45;27</title>
<polygon fill="none" stroke="#c8c8c8" points="841.68,-629 719,-652 719,-606 841.68,-629"/>
<text text-anchor="middle" x="759.89" y="-625.3" font-family="Times,serif" font-size="14.00">2 (0x1b)</text>
</g>
<!-- nid&#45;1b&#45;out&#45;&gt;nid&#45;23&#45;ampin&#45;27 -->
<g id="edge40" class="edge">
<title>nid&#45;1b&#45;out&#45;&gt;nid&#45;23&#45;ampin&#45;27</title>
<path fill="none" stroke="#333333" d="M432.51,-473.05C491.07,-506.94 585.07,-559.21 670,-597 682.42,-602.53 696.11,-607.83 708.96,-612.47"/>
<polygon fill="#333333" stroke="#333333" points="707.98,-615.84 718.58,-615.89 710.32,-609.24 707.98,-615.84"/>
</g>
<!-- nid&#45;1b&#45;ampin -->
<g id="node28" class="node">
<title>nid&#45;1b&#45;ampin</title>
<polygon fill="none" stroke="#0000ff" points="70,-439 29.5,-457 29.5,-421 70,-439"/>
</g>
<!-- nid&#45;1b&#45;ampin&#45;&gt;nid&#45;1b&#45;out -->
<g id="edge17" class="edge">
<title>nid&#45;1b&#45;ampin&#45;&gt;nid&#45;1b&#45;out</title>
<path fill="none" stroke="#0000ff" d="M70.09,-439C116.62,-439 215.81,-439 288.05,-439"/>
<polygon fill="#0000ff" stroke="#0000ff" points="288.2,-440.75 293.2,-439 288.2,-437.25 288.2,-440.75"/>
</g>
<!-- nid&#45;1d&#45;out -->
<g id="node29" class="node">
<title>nid&#45;1d&#45;out</title>
<polygon fill="none" stroke="green" points="462,-841 286,-841 286,-773 462,-773 462,-841"/>
<text text-anchor="middle" x="374" y="-825.8" font-family="Times,serif" font-size="14.00">0x1d</text>
<text text-anchor="middle" x="374" y="-810.8" font-family="Times,serif" font-size="14.00">[N/A] SPDIF Out at Ext N/A</text>
<text text-anchor="middle" x="374" y="-795.8" font-family="Times,serif" font-size="14.00">Mono</text>
<text text-anchor="middle" x="374" y="-780.8" font-family="Times,serif" font-size="14.00">IN</text>
</g>
<!-- nid&#45;22&#45;ampin&#45;29 -->
<g id="node35" class="node">
<title>nid&#45;22&#45;ampin&#45;29</title>
<polygon fill="none" stroke="#c8c8c8" points="841.68,-495 719,-518 719,-472 841.68,-495"/>
<text text-anchor="middle" x="759.89" y="-491.3" font-family="Times,serif" font-size="14.00">3 (0x1d)</text>
</g>
<!-- nid&#45;1d&#45;out&#45;&gt;nid&#45;22&#45;ampin&#45;29 -->
<g id="edge31" class="edge">
<title>nid&#45;1d&#45;out&#45;&gt;nid&#45;22&#45;ampin&#45;29</title>
<path fill="none" stroke="#333333" d="M435.5,-772.88C447.35,-765.25 459.39,-756.8 470,-748 571.23,-664.09 561.61,-604.43 670,-530 681.88,-521.84 695.94,-515.19 709.33,-509.96"/>
<polygon fill="#333333" stroke="#333333" points="710.76,-513.16 718.92,-506.4 708.33,-506.6 710.76,-513.16"/>
</g>
<!-- nid&#45;23&#45;ampin&#45;29 -->
<g id="node40" class="node">
<title>nid&#45;23&#45;ampin&#45;29</title>
<polygon fill="none" stroke="#c8c8c8" points="841.68,-821 719,-844 719,-798 841.68,-821"/>
<text text-anchor="middle" x="759.89" y="-817.3" font-family="Times,serif" font-size="14.00">3 (0x1d)</text>
</g>
<!-- nid&#45;1d&#45;out&#45;&gt;nid&#45;23&#45;ampin&#45;29 -->
<g id="edge41" class="edge">
<title>nid&#45;1d&#45;out&#45;&gt;nid&#45;23&#45;ampin&#45;29</title>
<path fill="none" stroke="#333333" d="M462.11,-810.18C538.28,-812.95 646.23,-816.89 708.76,-819.17"/>
<polygon fill="#333333" stroke="#333333" points="708.65,-822.67 718.77,-819.54 708.9,-815.67 708.65,-822.67"/>
</g>
<!-- nid&#45;22&#45;ampin&#45;25&#45;&gt;nid&#45;22 -->
<g id="edge23" class="edge">
<title>nid&#45;22&#45;ampin&#45;25&#45;&gt;nid&#45;22</title>
<path fill="none" stroke="#c8c8c8" d="M801.27,-423.34C865.91,-411.09 991.94,-387.19 1057.15,-374.83"/>
<polygon fill="#c8c8c8" stroke="#c8c8c8" points="1057.53,-376.54 1062.12,-373.89 1056.88,-373.1 1057.53,-376.54"/>
</g>
<!-- nid&#45;22&#45;ampin&#45;26&#45;&gt;nid&#45;22 -->
<g id="edge24" class="edge">
<title>nid&#45;22&#45;ampin&#45;26&#45;&gt;nid&#45;22</title>
<path fill="none" stroke="#c8c8c8" d="M840.88,-367C906.79,-367 997.96,-367 1052.29,-367"/>
<polygon fill="#c8c8c8" stroke="#c8c8c8" points="1052.43,-368.75 1057.43,-367 1052.43,-365.25 1052.43,-368.75"/>
</g>
<!-- nid&#45;22&#45;ampin&#45;27&#45;&gt;nid&#45;22 -->
<g id="edge25" class="edge">
<title>nid&#45;22&#45;ampin&#45;27&#45;&gt;nid&#45;22</title>
<path fill="none" stroke="#c8c8c8" d="M801.27,-310.66C865.91,-322.91 991.94,-346.81 1057.15,-359.17"/>
<polygon fill="#c8c8c8" stroke="#c8c8c8" points="1056.88,-360.9 1062.12,-360.11 1057.53,-357.46 1056.88,-360.9"/>
</g>
<!-- nid&#45;22&#45;ampin&#45;29&#45;&gt;nid&#45;22 -->
<g id="edge26" class="edge">
<title>nid&#45;22&#45;ampin&#45;29&#45;&gt;nid&#45;22</title>
<path fill="none" stroke="#c8c8c8" d="M787.66,-484.85C847.5,-462.16 992.25,-407.27 1060.98,-381.2"/>
<polygon fill="#c8c8c8" stroke="#c8c8c8" points="1061.74,-382.78 1065.8,-379.37 1060.5,-379.51 1061.74,-382.78"/>
</g>
<!-- nid&#45;22&#45;ampin&#45;19&#45;&gt;nid&#45;22 -->
<g id="edge27" class="edge">
<title>nid&#45;22&#45;ampin&#45;19&#45;&gt;nid&#45;22</title>
<path fill="none" stroke="#c8c8c8" d="M787.66,-249.15C847.5,-271.84 992.25,-326.73 1060.98,-352.8"/>
<polygon fill="#c8c8c8" stroke="#c8c8c8" points="1060.5,-354.49 1065.8,-354.63 1061.74,-351.22 1060.5,-354.49"/>
</g>
<!-- nid&#45;23&#45;ampin&#45;25&#45;&gt;nid&#45;23 -->
<g id="edge33" class="edge">
<title>nid&#45;23&#45;ampin&#45;25&#45;&gt;nid&#45;23</title>
<path fill="none" stroke="#0000ff" d="M801.27,-749.34C865.91,-737.09 991.94,-713.19 1057.15,-700.83"/>
<polygon fill="#0000ff" stroke="#0000ff" points="1057.53,-702.54 1062.12,-699.89 1056.88,-699.1 1057.53,-702.54"/>
</g>
<!-- nid&#45;23&#45;ampin&#45;26&#45;&gt;nid&#45;23 -->
<g id="edge34" class="edge">
<title>nid&#45;23&#45;ampin&#45;26&#45;&gt;nid&#45;23</title>
<path fill="none" stroke="#c8c8c8" d="M840.88,-693C906.79,-693 997.96,-693 1052.29,-693"/>
<polygon fill="#c8c8c8" stroke="#c8c8c8" points="1052.43,-694.75 1057.43,-693 1052.43,-691.25 1052.43,-694.75"/>
</g>
<!-- nid&#45;23&#45;ampin&#45;27&#45;&gt;nid&#45;23 -->
<g id="edge35" class="edge">
<title>nid&#45;23&#45;ampin&#45;27&#45;&gt;nid&#45;23</title>
<path fill="none" stroke="#c8c8c8" d="M801.27,-636.66C865.91,-648.91 991.94,-672.81 1057.15,-685.17"/>
<polygon fill="#c8c8c8" stroke="#c8c8c8" points="1056.88,-686.9 1062.12,-686.11 1057.53,-683.46 1056.88,-686.9"/>
</g>
<!-- nid&#45;23&#45;ampin&#45;29&#45;&gt;nid&#45;23 -->
<g id="edge36" class="edge">
<title>nid&#45;23&#45;ampin&#45;29&#45;&gt;nid&#45;23</title>
<path fill="none" stroke="#c8c8c8" d="M787.66,-810.85C847.5,-788.16 992.25,-733.27 1060.98,-707.2"/>
<polygon fill="#c8c8c8" stroke="#c8c8c8" points="1061.74,-708.78 1065.8,-705.37 1060.5,-705.51 1061.74,-708.78"/>
</g>
<!-- nid&#45;23&#45;ampin&#45;18&#45;&gt;nid&#45;23 -->
<g id="edge37" class="edge">
<title>nid&#45;23&#45;ampin&#45;18&#45;&gt;nid&#45;23</title>
<path fill="none" stroke="#c8c8c8" d="M787.66,-575.15C847.5,-597.84 992.25,-652.73 1060.98,-678.8"/>
<polygon fill="#c8c8c8" stroke="#c8c8c8" points="1060.5,-680.49 1065.8,-680.63 1061.74,-677.22 1060.5,-680.49"/>
</g>
</g>
</svg>
